<svg width="240" height="240" viewBox="0 0 240 240" xmlns="http://www.w3.org/2000/svg">
  <defs>
    <linearGradient id="body3" x1="0" y1="0" x2="1" y2="1">
      <stop offset="0%" stop-color="#F87F23"/>
      <stop offset="50%" stop-color="#F2913D"/>
      <stop offset="100%" stop-color="#CC0A0D"/>
    </linearGradient>
  </defs>
  <ellipse cx="120" cy="222" rx="52" ry="10" fill="#21130F" opacity="0.12"/>
  <!-- тело -->
  <circle cx="120" cy="126" r="86" fill="url(#body3)"/>
  <!-- кратеры -->
  <circle cx="86" cy="160" r="9" fill="#730C02" opacity="0.35"/>
  <circle cx="150" cy="168" r="6" fill="#730C02" opacity="0.3"/>
  <!-- лицо -->
  <circle cx="98" cy="118" r="5.5" fill="#21130F"/>
  <circle cx="132" cy="118" r="5.5" fill="#21130F"/>
  <path d="M96 142 Q115 154 134 142" stroke="#21130F" stroke-width="5" fill="none" stroke-linecap="round"/>
  <ellipse cx="82" cy="134" rx="7" ry="4.5" fill="#F0DFCB" opacity="0.6"/>
  <ellipse cx="148" cy="134" rx="7" ry="4.5" fill="#F0DFCB" opacity="0.6"/>
  <!-- шапочка выпускника -->
  <g transform="translate(120,46)">
    <path d="M-46 6 L0 -14 L46 6 L0 26 Z" fill="#21130F"/>
    <rect x="-6" y="6" width="12" height="26" fill="#21130F"/>
    <circle cx="0" cy="34" r="6" fill="#F0DFCB"/>
    <line x1="30" y1="0" x2="42" y2="34" stroke="#F0DFCB" stroke-width="3"/>
    <circle cx="42" cy="34" r="4" fill="#F0DFCB"/>
  </g>
  <!-- звёзды -->
  <g fill="#F0DFCB">
    <path d="M198 70 l2.5 6 6 2.5 -6 2.5 -2.5 6 -2.5-6 -6-2.5 6-2.5Z"/>
    <path d="M30 96 l2 5 5 2 -5 2 -2 5 -2-5 -5-2 5-2Z"/>
    <path d="M204 150 l2 5 5 2 -5 2 -2 5 -2-5 -5-2 5-2Z"/>
  </g>
</svg>
