<svg width="240" height="240" viewBox="0 0 240 240" xmlns="http://www.w3.org/2000/svg">
  <defs>
    <linearGradient id="body1" x1="0" y1="0" x2="1" y2="1">
      <stop offset="0%" stop-color="#F87F23"/>
      <stop offset="55%" stop-color="#BF3604"/>
      <stop offset="100%" stop-color="#CC0A0D"/>
    </linearGradient>
  </defs>
  <!-- тень -->
  <ellipse cx="120" cy="222" rx="52" ry="10" fill="#21130F" opacity="0.12"/>
  <!-- тело-месяц -->
  <path d="M120 20
           C170 20 200 62 200 118
           C200 176 158 220 108 220
           C150 205 168 168 168 118
           C168 68 150 32 108 18
           C112 19 116 19 120 20 Z"
        fill="url(#body1)"/>
  <!-- лицо -->
  <circle cx="118" cy="112" r="5.5" fill="#21130F"/>
  <circle cx="150" cy="106" r="5.5" fill="#21130F"/>
  <path d="M112 138 Q133 156 156 132" stroke="#21130F" stroke-width="5" fill="none" stroke-linecap="round"/>
  <!-- румянец -->
  <ellipse cx="104" cy="128" rx="8" ry="5" fill="#F0DFCB" opacity="0.6"/>
  <ellipse cx="164" cy="122" rx="8" ry="5" fill="#F0DFCB" opacity="0.6"/>
  <!-- ручка-звёздочка (машет) -->
  <path d="M60 150 L40 168" stroke="#21130F" stroke-width="6" stroke-linecap="round"/>
  <g transform="translate(24,150) rotate(-10)">
    <path d="M10 0 L13 8 L21 8 L14.5 13 L17 21 L10 16 L3 21 L5.5 13 L-1 8 L7 8 Z" fill="#F0DFCB"/>
  </g>
  <!-- звёзды вокруг -->
  <g fill="#F0DFCB">
    <path d="M196 60 l2.5 6 6 2.5 -6 2.5 -2.5 6 -2.5-6 -6-2.5 6-2.5Z"/>
    <path d="M40 90 l2 5 5 2 -5 2 -2 5 -2-5 -5-2 5-2Z"/>
  </g>
</svg>
